HIERARCHY
ROOT joint_Root
{
	OFFSET 0.0 0.0 0.0
	CHANNELS 6 Xposition Yposition Zposition Zrotation Xrotation Yrotation 
	JOINT Hips
	{
		OFFSET 4.5925 91.4895 -427.239
		CHANNELS 6 Xposition Yposition Zposition Zrotation Xrotation Yrotation 
		JOINT Spine
		{
			OFFSET 15.7357 0.0 0.0
			CHANNELS 6 Xposition Yposition Zposition Zrotation Xrotation Yrotation 
			JOINT Chest
			{
				OFFSET 8.98455 -0.406207 0.0
				CHANNELS 6 Xposition Yposition Zposition Zrotation Xrotation Yrotation 
				JOINT Neck
				{
					OFFSET 16.3773 0.0 0.0
					CHANNELS 6 Xposition Yposition Zposition Zrotation Xrotation Yrotation 
					JOINT Head
					{
						OFFSET 6.45672 0.0 0.0
						CHANNELS 6 Xposition Yposition Zposition Zrotation Xrotation Yrotation 
						End Site
						{
							OFFSET 0.0 0.0 0.0
						}
					}
				}
				JOINT Shoulder_L
				{
					OFFSET 12.9942 -0.242716 4.98039
					CHANNELS 6 Xposition Yposition Zposition Zrotation Xrotation Yrotation 
					JOINT UpperArm_L
					{
						OFFSET 5.34809 0.0 0.0
						CHANNELS 6 Xposition Yposition Zposition Zrotation Xrotation Yrotation 
						JOINT LowerArm_L
						{
							OFFSET 24.3286 1.87007e-05 0.0
							CHANNELS 6 Xposition Yposition Zposition Zrotation Xrotation Yrotation 
							JOINT Hand_L
							{
								OFFSET 22.2916 0.0 0.0
								CHANNELS 6 Xposition Yposition Zposition Zrotation Xrotation Yrotation 
								End Site
								{
									OFFSET 0.0 0.0 0.0
								}
							}
						}
					}
				}
				JOINT Shoulder_R
				{
					OFFSET 12.9945 -0.242716 -4.98039
					CHANNELS 6 Xposition Yposition Zposition Zrotation Xrotation Yrotation 
					JOINT UpperArm_R
					{
						OFFSET -5.34813 0.0 0.0
						CHANNELS 6 Xposition Yposition Zposition Zrotation Xrotation Yrotation 
						JOINT LowerArm_R
						{
							OFFSET -24.3289 0.000322201 0.0
							CHANNELS 6 Xposition Yposition Zposition Zrotation Xrotation Yrotation 
							JOINT Hand_R
							{
								OFFSET -22.2915 -0.000108084 0.0
								CHANNELS 6 Xposition Yposition Zposition Zrotation Xrotation Yrotation 
								End Site
								{
									OFFSET 0.0 0.0 0.0
								}
							}
						}
					}
				}
			}
		}
		JOINT UpperLeg_L
		{
			OFFSET -2.19248 -6.46944 0.0
			CHANNELS 6 Xposition Yposition Zposition Zrotation Xrotation Yrotation 
			JOINT LowerLeg_L
			{
				OFFSET 39.0811 0.0 -1.23785e-05
				CHANNELS 6 Xposition Yposition Zposition Zrotation Xrotation Yrotation 
				JOINT Foot_L
				{
					OFFSET 40.9854 0.0 -1.26872e-05
					CHANNELS 6 Xposition Yposition Zposition Zrotation Xrotation Yrotation 
					JOINT Toes_L
					{
						OFFSET 11.7543 0.0 0.0
						CHANNELS 6 Xposition Yposition Zposition Zrotation Xrotation Yrotation 
						End Site
						{
							OFFSET 0.0 0.0 0.0
						}
					}
				}
			}
		}
		JOINT UpperLeg_R
		{
			OFFSET -2.19251 6.46944 0.0
			CHANNELS 6 Xposition Yposition Zposition Zrotation Xrotation Yrotation 
			JOINT LowerLeg_R
			{
				OFFSET -39.0811 -0.00228153 -0.0401928
				CHANNELS 6 Xposition Yposition Zposition Zrotation Xrotation Yrotation 
				JOINT Foot_R
				{
					OFFSET -40.9854 0.0 0.0
					CHANNELS 6 Xposition Yposition Zposition Zrotation Xrotation Yrotation 
					JOINT Toes_R
					{
						OFFSET -11.7543 0.0 0.0
						CHANNELS 6 Xposition Yposition Zposition Zrotation Xrotation Yrotation 
						End Site
						{
							OFFSET 0.0 0.0 0.0
						}
					}
				}
			}
		}
	}
}
MOTION
Frames:	4
Frame Time:	0.0333333
0.000000 0.000000 0.000000 0.000000 0.000000 -0.000000 151.296000 83.936500 -55.445300 92.496000 -11.578500 0.981760 15.735700 0.000005 -0.000001 119.844000 82.250600 -121.404000 8.984550 -0.406207 -0.000000 5.825980 7.719930 -3.513070 16.377300 -0.000001 -0.000001 -1.830840 -2.173860 1.179530 6.456720 -0.000001 -0.000000 -11.667500 -4.838110 -2.545540 12.994200 -0.242716 4.980390 -91.661300 4.335010 -69.007600 5.348090 -0.000007 -0.000001 -58.527000 2.690910 8.999600 24.328600 0.000019 0.000005 0.892432 25.083100 -2.105640 22.291600 -0.000001 0.000005 19.037300 4.881830 9.746160 12.994500 -0.242716 -4.980390 89.301600 7.898790 -84.931200 -5.348130 -0.000001 -0.000004 -39.013000 9.401340 -42.246300 -24.328900 0.000322 -0.000009 -1.287400 -1.315510 -44.385800 -22.291500 -0.000108 -0.000004 23.783900 5.448320 -4.578340 -2.192480 -6.469440 -0.000000 179.566000 -8.144880 -32.377000 39.081100 -0.000007 -0.000012 -0.355346 0.234073 56.627300 40.985400 -0.000006 -0.000013 -1.031360 -0.630850 -73.892500 11.754300 -0.000000 0.000003 -0.132825 -0.180436 -16.556500 -2.192510 6.469440 -0.000001 168.239000 6.788660 -170.776000 -39.081100 -0.002282 -0.040193 0.024493 -0.023727 41.806000 -40.985400 0.000008 0.000006 2.729710 0.772387 -76.539400 -11.754300 -0.000006 -0.000006 -0.103341 -0.452770 -35.486800
0.000000 0.000000 0.000000 0.000000 0.000000 -0.000000 151.773000 84.037900 -51.046200 92.197600 -11.395700 1.639410 15.735700 0.000005 -0.000001 117.649000 82.375500 -119.058000 8.984550 -0.406207 -0.000000 5.865330 7.081900 -3.179920 16.377300 -0.000001 -0.000001 -1.721830 -2.438380 0.520081 6.456720 -0.000001 -0.000000 -11.248700 -5.000040 -4.392010 12.994200 -0.242716 4.980390 -91.672700 4.414330 -69.222700 5.348090 -0.000007 -0.000001 -62.250400 3.546510 6.909190 24.328600 0.000019 0.000005 -0.000014 25.563000 -0.000002 22.291600 -0.000001 0.000005 16.404300 4.823910 10.865400 12.994500 -0.242716 -4.980390 89.328300 7.743670 -85.027200 -5.348130 -0.000001 -0.000004 -40.722300 11.499900 -39.602400 -24.328900 0.000322 -0.000009 -1.449320 -1.313700 -47.780100 -22.291500 -0.000108 -0.000004 24.595700 5.474640 -5.541380 -2.192480 -6.469440 -0.000000 179.188000 -8.338620 -28.469600 39.081100 -0.000007 -0.000012 -0.259404 0.167666 57.124300 40.985400 -0.000006 -0.000013 0.554096 -1.059470 -77.677800 11.754300 -0.000000 0.000003 -0.676776 -0.927029 -16.103700 -2.192510 6.469440 -0.000001 168.356000 5.765990 -174.412000 -39.081100 -0.002282 -0.040193 0.115918 -0.090127 51.344400 -40.985400 0.000008 0.000006 4.048220 -1.265460 -65.914700 -11.754300 -0.000006 -0.000006 -0.146947 -0.548675 -39.759000
0.000000 0.000000 0.000000 0.000000 0.000000 -0.000000 152.005000 84.546800 -47.041300 91.711500 -10.828700 2.253800 15.735700 0.000005 -0.000001 113.861000 82.506200 -115.043000 8.984550 -0.406207 -0.000000 6.030560 6.064620 -2.681950 16.377300 -0.000001 -0.000001 -1.617160 -2.624070 -0.018724 6.456720 -0.000001 -0.000000 -10.710700 -4.754720 -6.355700 12.994200 -0.242716 4.980390 -91.603400 4.325790 -69.639400 5.348090 -0.000007 -0.000001 -66.493800 7.008800 4.002640 24.328600 0.000019 0.000005 0.000009 25.410900 -0.000002 22.291600 -0.000001 0.000005 11.719200 4.888370 9.574780 12.994500 -0.242716 -4.980390 89.294500 7.729520 -84.768700 -5.348130 -0.000001 -0.000004 -41.858700 15.246100 -37.509800 -24.328900 0.000322 -0.000009 -2.442850 -2.126220 -48.974000 -22.291500 -0.000108 -0.000004 24.542000 5.491880 -6.209530 -2.192480 -6.469440 -0.000000 179.290000 -8.795930 -23.853000 39.081100 -0.000007 -0.000012 -0.109927 0.075138 55.647900 40.985400 -0.000006 -0.000013 2.245460 -0.855125 -80.180700 11.754300 -0.000000 0.000003 -1.250340 -1.713870 -15.604700 -2.192510 6.469440 -0.000001 169.486000 4.599120 -179.944000 -39.081100 -0.002282 -0.040193 0.181333 -0.096908 61.454200 -40.985400 0.000008 0.000006 4.436570 -4.199910 -54.139900 -11.754300 -0.000006 -0.000006 -0.042764 -0.270946 -27.711200
0.000000 0.000000 0.000000 0.000000 0.000000 -0.000000 152.025000 85.289800 -43.406900 91.304600 -9.899440 2.450860 15.735700 0.000005 -0.000001 108.903000 82.731400 -109.897000 8.984550 -0.406207 -0.000000 6.044750 4.711860 -2.236470 16.377300 -0.000001 -0.000001 -1.429570 -2.726880 -0.498188 6.456720 -0.000001 -0.000000 -10.181400 -4.237490 -7.981530 12.994200 -0.242716 4.980390 -91.653600 4.646030 -70.382700 5.348090 -0.000007 -0.000001 -69.462000 13.411800 0.638279 24.328600 0.000019 0.000005 0.690994 24.754600 -1.651950 22.291600 -0.000001 0.000005 7.242420 5.036530 6.495730 12.994500 -0.242716 -4.980390 89.236100 7.954450 -84.496800 -5.348130 -0.000001 -0.000004 -42.748100 19.855600 -35.610700 -24.328900 0.000322 -0.000009 -2.423630 -2.173440 -48.122900 -22.291500 -0.000108 -0.000004 22.937900 5.491230 -6.179160 -2.192480 -6.469440 -0.000000 179.491000 -8.667180 -19.332100 39.081100 -0.000007 -0.000012 0.053745 -0.040747 52.829100 40.985400 -0.000006 -0.000013 3.656470 -0.792702 -81.755600 11.754300 -0.000000 0.000003 -1.851090 -2.526560 -14.566400 -2.192510 6.469440 -0.000001 171.129000 4.509460 174.569000 -39.081100 -0.002282 -0.040193 0.187199 -0.069688 69.264400 -40.985400 0.000008 0.000006 6.216000 -6.957830 -50.330500 -11.754300 -0.000006 -0.000006 -0.021858 -0.177370 -23.823400
